<svg width="60" height="60" viewBox="0 0 277 287" fill="none" xmlns="http://www.w3.org/2000/svg">
<g clip-path="url(#clip0_1134_1448)">
<path d="M92.3335 155.458V65.771C92.3335 61.0137 94.1575 56.4512 97.4042 53.0873C100.651 49.7233 105.054 47.8335 109.646 47.8335C114.238 47.8335 118.641 49.7233 121.888 53.0873C125.135 56.4512 126.958 61.0137 126.958 65.771V143.5" fill="#F1A604"/>
<path d="M92.3335 155.458V65.771C92.3335 61.0137 94.1575 56.4512 97.4042 53.0873C100.651 49.7233 105.054 47.8335 109.646 47.8335C114.238 47.8335 118.641 49.7233 121.888 53.0873C125.135 56.4512 126.958 61.0137 126.958 65.771V143.5" stroke="black" stroke-width="5" stroke-linecap="round" stroke-linejoin="round"/>
<path d="M126.958 65.7707V41.854C126.958 39.4984 127.406 37.1659 128.276 34.9896C129.146 32.8133 130.422 30.8359 132.029 29.1703C133.637 27.5046 135.545 26.1834 137.646 25.2819C139.746 24.3805 141.997 23.9165 144.271 23.9165C146.545 23.9165 148.796 24.3805 150.896 25.2819C152.997 26.1834 154.905 27.5046 156.513 29.1703C158.12 30.8359 159.396 32.8133 160.266 34.9896C161.136 37.1659 161.583 39.4984 161.583 41.854V143.5" fill="#F1A604"/>
<path d="M126.958 65.7707V41.854C126.958 39.4984 127.406 37.1659 128.276 34.9896C129.146 32.8133 130.422 30.8359 132.029 29.1703C133.637 27.5046 135.545 26.1834 137.646 25.2819C139.746 24.3805 141.997 23.9165 144.271 23.9165C146.545 23.9165 148.796 24.3805 150.896 25.2819C152.997 26.1834 154.905 27.5046 156.513 29.1703C158.12 30.8359 159.396 32.8133 160.266 34.9896C161.136 37.1659 161.583 39.4984 161.583 41.854V143.5" stroke="black" stroke-width="5" stroke-linecap="round" stroke-linejoin="round"/>
<path d="M127 143V43.8333C127 38.5732 128.844 33.5285 132.126 29.809C135.408 26.0896 139.859 24 144.5 24C149.141 24 153.592 26.0896 156.874 29.809C160.156 33.5285 162 38.5732 162 43.8333V129.778" fill="#F1A604"/>
<path d="M127 143V43.8333C127 38.5732 128.844 33.5285 132.126 29.809C135.408 26.0896 139.859 24 144.5 24C149.141 24 153.592 26.0896 156.874 29.809C160.156 33.5285 162 38.5732 162 43.8333V129.778" stroke="black" stroke-width="5" stroke-linecap="round" stroke-linejoin="round"/>
<path d="M189.777 89.9062C189.777 85.1572 191.474 80.6027 194.496 77.2446C197.517 73.8865 201.615 72 205.888 72C210.161 72 214.259 73.8865 217.281 77.2446C220.303 80.6027 222 85.1572 222 89.9062V191.375C222 210.371 215.21 228.589 203.124 242.022C191.038 255.454 174.646 263 157.553 263H136.071H138.305C127.632 263.002 117.126 260.058 107.729 254.432C98.3328 248.807 90.3407 240.675 84.4705 230.769C83.7659 229.577 83.0642 228.383 82.3652 227.188C79.014 221.469 67.2524 198.681 47.0698 158.81C45.0123 154.745 44.4628 149.949 45.5379 145.441C46.6131 140.934 49.2282 137.07 52.8271 134.672C56.6603 132.116 61.1522 131.056 65.5892 131.662C70.0263 132.267 74.154 134.503 77.3169 138.014L93.1063 155.562" fill="#F1A604"/>
<path d="M189.777 89.9062C189.777 85.1572 191.474 80.6027 194.496 77.2446C197.517 73.8865 201.615 72 205.888 72C210.161 72 214.259 73.8865 217.281 77.2446C220.303 80.6027 222 85.1572 222 89.9062V191.375C222 210.371 215.21 228.589 203.124 242.022C191.038 255.454 174.646 263 157.553 263H136.071H138.305C127.632 263.002 117.126 260.058 107.729 254.432C98.3328 248.807 90.3407 240.675 84.4705 230.769C83.7659 229.577 83.0642 228.383 82.3652 227.188C79.014 221.469 67.2524 198.681 47.0698 158.81C45.0123 154.745 44.4628 149.949 45.5379 145.441C46.6131 140.934 49.2282 137.07 52.8271 134.672C56.6603 132.116 61.1522 131.056 65.5892 131.662C70.0263 132.267 74.154 134.503 77.3169 138.014L93.1063 155.562" stroke="black" stroke-width="5" stroke-linecap="round" stroke-linejoin="round"/>
<path d="M162 57.25C162 53.4707 163.528 49.8461 166.247 47.1737C168.966 44.5013 172.654 43 176.5 43C180.346 43 184.034 44.5013 186.753 47.1737C189.472 49.8461 191 53.4707 191 57.25V119" fill="#F1A604"/>
<path d="M162 57.25C162 53.4707 163.528 49.8461 166.247 47.1737C168.966 44.5013 172.654 43 176.5 43C180.346 43 184.034 44.5013 186.753 47.1737C189.472 49.8461 191 53.4707 191 57.25V119" stroke="black" stroke-width="5" stroke-linecap="round" stroke-linejoin="round"/>
<line x1="163.5" y1="50" x2="163.5" y2="104" stroke="black" stroke-width="5"/>
<path d="M162.738 79L162.739 127.5" stroke="black" stroke-width="6.5"/>
<rect x="166" y="64" width="20" height="46" fill="#F1A604"/>
<rect x="197.213" y="114" width="8.72535" height="11.0196" transform="rotate(56.7267 197.213 114)" fill="#F1A604"/>
<rect x="166.213" y="123" width="8.72535" height="11.0196" transform="rotate(56.7267 166.213 123)" fill="#F1A604"/>
</g>
<defs>
<clipPath id="clip0_1134_1448">
<rect width="277" height="287" fill="white"/>
</clipPath>
</defs>
</svg>
