<svg width="1280" height="832" viewBox="0 0 1280 832" fill="none" xmlns="http://www.w3.org/2000/svg">
<path d="M1390.29 535.144C1390.29 535.144 1309.39 241.924 1301.19 186.3L1292.98 130.658C1292.98 130.658 1291.81 254.198 1302.35 286.806L1312.91 319.415C1312.91 319.415 1257.82 234.994 1260.15 199.832L1262.51 164.653C1262.51 164.653 1239.05 262.824 1275.4 306.94C1311.75 351.056 1296.5 337.196 1296.5 337.196L1197.16 302.965L1277.73 399.13L1245.65 388.297C1245.65 388.297 1250.78 414.176 1287.11 448.28C1323.45 482.384 1390.28 535.126 1390.28 535.126L1390.29 535.144Z" fill="#F2EED8"/>
<path d="M1351.83 309.257L1325.19 313.306L1363.49 333.622L1385.19 378.978L1366.6 381.805L1393.29 395.939L1465.18 546.288L1429.14 669.225L1391.1 673.183L1314.94 681.08C1295.81 638.568 1270.29 529.874 1250.85 438.778L1257.38 437.885L1261.65 400.334L1246.22 416.857C1240.22 388.261 1234.99 362.273 1230.96 341.774L1249.98 328.99L1228.22 327.968C1224.34 308.144 1222.09 296.162 1222.09 296.162L1267.89 210.666L1337.41 279.001L1351.87 309.257H1351.83Z" fill="#496F44"/>
<path d="M1351.83 309.257L1325.17 313.305L1363.47 333.604L1385.17 378.96L1366.59 381.805L1393.27 395.939L1465.16 546.288L1429.12 669.225L1391.08 673.165L1267.83 210.647L1337.35 278.983L1351.83 309.257Z" fill="#2F473A"/>
<path d="M915.924 747.737C973.043 669.554 978.059 595.419 978.059 595.419C914.739 617.942 871.808 650.258 842.719 684.618C853.607 609.753 836.573 556.938 836.573 556.938C792.804 595.455 766.031 635.121 750.365 672.836C747.32 664.958 744.092 657.426 740.754 650.24C740.262 649.146 739.751 648.07 739.241 646.994C705.775 577.127 661.112 541.582 659.999 540.707H659.981C638.352 623.559 647.653 688.484 668.115 737.542C603.719 676.356 538.466 660.636 538.466 660.636C577.64 885.046 767.034 897.648 767.034 897.648C764.025 888.438 760.797 879.593 757.387 871.058C761.18 866.48 764.828 861.903 768.329 857.325C770.937 858.948 772.487 859.805 772.688 859.915C772.834 858.656 772.962 857.398 773.089 856.14C773.29 854.134 773.472 852.146 773.655 850.158C776.773 845.89 779.801 841.623 782.664 837.355C781.934 851.854 782.828 860.626 782.828 860.626C792.366 855.593 801.412 850.377 810.038 844.997C1006.93 869.088 1111.45 746.059 1111.45 746.059C1029.58 721.184 964.818 728.715 915.888 747.792L915.924 747.737Z" fill="#F2EED8"/>
<path d="M935.329 -82.226C935.329 -82.226 963.652 843.191 937.098 899.472L910.544 955.752L1000.84 920.572C1000.84 920.572 993.251 429.441 988.436 315.622C983.621 201.784 1032.7 -85.3445 1032.7 -85.3445C1032.7 -85.3445 951.25 -111.916 935.311 -82.226H935.329Z" fill="#F2EED8"/>
<path d="M156.247 -138.944C156.247 -138.944 173.153 786.473 157.305 842.754L141.457 899.034L195.366 863.854C195.366 863.854 190.843 372.723 187.962 258.903C185.08 145.066 214.388 -142.063 214.388 -142.063C214.388 -142.063 165.767 -168.635 156.247 -138.944Z" fill="#F2EED8"/>
<path d="M727.258 -2.29176C727.258 -2.29176 718.122 136.403 537.791 242.07C492.708 319.16 537.791 944.062 537.791 944.062H353.612C353.612 944.062 447.333 296.874 421.746 242.49C396.159 188.088 354.287 159.163 292.407 71.1683C261.276 26.9062 295.27 -88.5726 295.27 -88.5726C295.27 -88.5726 380.329 72.4813 410.038 124.275C439.747 176.069 474.908 226.332 474.908 226.332C474.908 226.332 514.72 198.903 554.988 161.644C595.275 124.385 617.16 131.388 624.965 97.2294C632.789 63.0709 606.983 -47.5568 606.983 -47.5568L655.586 -96.1411L670.431 -69.8611L655.586 58.6757C655.586 58.6757 668.589 70.074 685.914 23.6417C703.258 -22.7905 713.27 -77.2108 713.27 -77.2108L727.24 -2.27351L727.258 -2.29176Z" fill="#F2EED8"/>
<path d="M706.213 928.852C706.213 928.852 625.312 635.632 617.105 580.008L608.898 524.385C608.898 524.385 607.731 647.924 618.272 680.533L628.832 713.141C628.832 713.141 573.737 628.72 576.071 593.559L578.424 558.379C578.424 558.379 554.97 656.551 591.317 700.667C627.664 744.783 612.418 730.922 612.418 730.922L513.079 696.691L593.652 792.856L561.572 782.023C561.572 782.023 566.697 807.902 603.026 842.006C639.373 876.11 706.194 928.852 706.194 928.852H706.213Z" fill="#D1C999"/>
<path d="M204.339 903.575C204.339 903.575 272.273 607.09 278.036 551.157L283.799 495.223C283.799 495.223 290.401 618.598 281.283 651.644L272.182 684.672C272.182 684.672 323.52 597.917 319.636 562.883L315.751 527.849C315.751 527.849 343.49 624.89 309.113 670.575C274.735 716.259 289.362 701.724 289.362 701.724L387.096 663.17L310.827 762.783L342.396 750.564C342.396 750.564 338.42 776.643 303.605 812.297C268.79 847.951 204.339 903.593 204.339 903.593V903.575Z" fill="#D1C999"/>
<path d="M519.207 514.044C519.207 514.044 679.239 445.453 712.65 375.112C746.061 304.77 696.82 310.041 782.992 260.8C869.163 211.559 986.995 229.14 1029.2 135.947C1071.4 42.7361 1065.54 -32.6753 1065.54 -32.6753L1038.33 -46.1163C1038.33 -46.1163 1044.92 -47.0281 1008.92 35.6782C972.915 118.366 944.775 162.337 886.744 178.167C828.713 193.997 761.891 211.577 723.191 243.237C684.51 274.897 644.06 394.48 587.779 410.31C531.499 426.14 518.186 408.668 518.186 408.668L519.189 514.062L519.207 514.044Z" fill="#F2EED8"/>
<path d="M1175.66 637.51C1168.46 640.064 1152.7 645.626 1121.73 656.605C1084.51 669.791 1070.69 691.384 1066.45 700.101C1065.62 701.834 1066.98 703.821 1068.9 703.694C1081.08 702.891 1117.76 699.809 1138.98 690.982C1159.3 682.557 1173.67 652.957 1178.81 640.866C1179.67 638.842 1177.72 636.781 1175.66 637.51Z" fill="#F2EED8"/>
<path d="M1178.5 576.835C1171.3 579.388 1155.54 584.95 1124.58 595.929C1087.35 609.115 1073.53 630.708 1069.3 639.425C1068.46 641.158 1069.83 643.145 1071.74 643.018C1083.93 642.215 1120.6 639.133 1141.83 630.306C1162.15 621.881 1176.52 592.282 1181.66 580.19C1182.52 578.166 1180.57 576.087 1178.5 576.835Z" fill="#F2EED8"/>
<path d="M1171.1 501.861C1164.19 505.144 1149.11 512.311 1119.43 526.427C1083.78 543.388 1072.27 566.294 1068.95 575.413C1068.3 577.218 1069.86 579.06 1071.76 578.732C1083.78 576.671 1119.94 569.814 1140.17 558.853C1159.5 548.367 1170.72 517.454 1174.6 504.889C1175.24 502.792 1173.11 500.931 1171.12 501.88L1171.1 501.861Z" fill="#F2EED8"/>
<path d="M1079.51 523.91C1090.09 517.819 1121.64 498.87 1136.8 481.599C1151.31 465.076 1151.11 432.194 1150.4 419.063C1150.27 416.875 1147.61 415.872 1146.08 417.44C1140.74 422.912 1129.06 434.839 1106.1 458.347C1078.53 486.578 1075.66 512.056 1075.72 521.758C1075.72 523.691 1077.83 524.858 1079.51 523.91Z" fill="#F2EED8"/>
<path d="M1078.62 487.745L1074.57 470.967C1075.1 470.693 1075.54 470.256 1075.77 469.636C1080.1 458.237 1092.55 423.641 1093.37 400.68C1094.16 378.723 1073.18 353.391 1064.3 343.67C1062.83 342.047 1060.13 342.959 1059.93 345.148C1059.25 352.753 1057.77 369.367 1054.87 402.085C1051.39 441.368 1065.31 462.906 1071.49 470.383C1072.04 471.04 1072.8 471.314 1073.55 471.259L1065.29 728.879L1078.62 487.764V487.745Z" fill="#F2EED8"/>
<path d="M1067.64 700.575C1064.12 691.548 1052.06 668.915 1016.03 652.812C986.027 639.407 970.781 632.605 963.796 629.504C961.79 628.611 959.674 630.526 960.367 632.605C964.525 645.079 976.471 675.718 996.039 685.73C1016.5 696.198 1052.81 702.198 1064.89 703.967C1066.8 704.241 1068.31 702.381 1067.62 700.575H1067.64Z" fill="#F2EED8"/>
<path d="M998.174 625.127C1018.64 635.595 1054.95 641.595 1067.02 643.364C1068.93 643.638 1070.45 641.778 1069.76 639.972C1066.24 630.945 1054.18 608.312 1018.14 592.209C988.143 578.804 972.897 572.002 965.912 568.901C963.906 568.008 961.79 569.923 962.483 572.002C966.642 584.476 978.587 615.115 998.156 625.127H998.174Z" fill="#F2EED8"/>
<path d="M1001.04 554.439C1020.31 566.968 1055.8 576.689 1067.62 579.698C1069.48 580.172 1071.19 578.458 1070.68 576.616C1068.11 567.26 1058.48 543.515 1024.31 523.782C995.857 507.351 981.394 499.016 974.774 495.186C972.878 494.092 970.58 495.77 971.054 497.922C973.899 510.761 982.598 542.476 1001.04 554.458V554.439Z" fill="#F2EED8"/>
<path d="M1068.22 521.794C1070.07 523.071 1072.64 521.885 1072.82 519.66C1073.79 508.39 1072.86 478.535 1043.46 443.155C1018.98 413.72 1006.54 398.747 1000.84 391.908C999.195 389.938 996.003 390.85 995.657 393.385C993.578 408.577 990.277 446.766 1005.6 467.319C1021.61 488.803 1056.5 513.733 1068.22 521.794Z" fill="#F2EED8"/>
<path d="M304.645 615.644C297.022 616.1 280.335 617.121 247.544 619.127C208.133 621.535 188.892 638.477 182.418 645.699C181.123 647.14 181.908 649.42 183.786 649.821C195.713 652.392 231.823 659.541 254.675 656.933C276.523 654.435 298.499 629.942 306.779 619.729C308.165 618.015 306.87 615.498 304.663 615.626L304.645 615.644Z" fill="#F2EED8"/>
<path d="M324.103 558.087C316.48 558.543 299.793 559.564 267.002 561.57C227.591 563.978 208.351 580.92 201.877 588.142C200.582 589.583 201.366 591.862 203.245 592.264C215.172 594.835 251.282 601.984 274.133 599.376C295.981 596.878 317.957 572.385 326.237 562.172C327.623 560.458 326.328 557.941 324.122 558.069L324.103 558.087Z" fill="#F2EED8"/>
<path d="M337.654 484.007C330.122 485.247 313.636 487.982 281.21 493.381C242.255 499.855 224.875 518.694 219.185 526.554C218.054 528.104 219.057 530.311 220.972 530.53C233.1 531.861 269.757 535.235 292.207 530.275C313.691 525.533 332.986 498.906 340.171 487.891C341.375 486.049 339.825 483.678 337.654 484.025V484.007Z" fill="#F2EED8"/>
<path d="M243.55 479.94C255.386 477.004 290.931 467.484 310.281 455.064C328.791 443.192 337.673 411.532 340.591 398.711C341.083 396.577 338.804 394.881 336.889 395.957C330.25 399.732 315.734 407.993 287.192 424.261C252.906 443.793 243.131 467.502 240.505 476.821C239.976 478.681 241.69 480.396 243.55 479.922V479.94Z" fill="#F2EED8"/>
<path d="M252.65 444.924L253.38 427.69C253.964 427.58 254.511 427.27 254.912 426.741C262.207 416.984 283.727 387.148 290.839 365.318C297.642 344.418 284.475 314.29 278.62 302.509C277.636 300.539 274.809 300.667 274.006 302.727C271.253 309.858 265.252 325.415 253.453 356.053C239.283 392.856 246.705 417.386 250.59 426.267C250.936 427.051 251.593 427.507 252.322 427.671L173.354 673.037L252.632 444.924H252.65Z" fill="#F2EED8"/>
<path d="M183.421 646.483C182.527 636.836 177.184 611.76 146.983 586.355C121.852 565.2 109.049 554.458 103.213 549.552C101.535 548.129 98.982 549.388 99.0732 551.595C99.6385 564.725 102.666 597.48 118.715 612.489C135.511 628.191 168.758 643.967 179.865 649C181.615 649.803 183.603 648.417 183.421 646.502V646.483Z" fill="#F2EED8"/>
<path d="M137.463 554.804C154.259 570.506 187.506 586.282 198.613 591.315C200.363 592.118 202.351 590.732 202.169 588.817C201.275 579.169 195.932 554.093 165.731 528.688C140.6 507.533 127.797 496.791 121.961 491.885C120.283 490.463 117.73 491.721 117.821 493.928C118.387 507.059 121.414 539.813 137.463 554.822V554.804Z" fill="#F2EED8"/>
<path d="M159.677 487.636C174.741 504.998 206.182 524.111 216.723 530.275C218.383 531.242 220.498 530.075 220.517 528.16C220.626 518.457 217.909 492.98 190.498 464.584C167.683 440.949 156.084 428.948 150.777 423.441C149.245 421.854 146.582 422.839 146.455 425.046C145.652 438.177 145.269 471.04 159.677 487.654V487.636Z" fill="#F2EED8"/>
<path d="M233.283 474.779C234.705 476.511 237.495 476.092 238.298 473.994C242.328 463.435 249.66 434.456 231.167 392.364C215.756 357.312 207.914 339.494 204.34 331.342C203.3 328.989 199.981 328.989 198.96 331.342C192.777 345.366 179.063 381.185 188.127 405.148C197.592 430.206 224.255 463.8 233.301 474.779H233.283Z" fill="#F2EED8"/>
<path d="M1151.48 486.05L1190.01 465.952L1179.45 498.797L1230.75 548.038L1265.7 533.357L1255.32 561.06L1314.99 624.197L1346.4 607.383L1340.14 640.885L1442.56 757.439L1449.2 675.846L1457.43 574.628C1457.43 574.628 1308.14 445.854 1156.24 393.915C1150.36 391.908 1144.51 390.012 1138.64 388.243L1040.23 418.115L1151.48 486.013V486.05Z" fill="#C2C155"/>
<path d="M1156.24 393.933C1286.93 468.414 1417.87 634.611 1449.2 675.864L1457.43 574.646C1457.43 574.646 1308.14 445.873 1156.24 393.933Z" fill="#D6D35F"/>
<path d="M974.191 71.5876C974.191 71.5876 983.328 195.328 1163.66 289.615C1208.74 358.406 1163.66 915.958 1163.66 915.958H1347.84C1347.84 915.958 1254.12 338.528 1279.7 289.998C1305.29 241.468 1303.54 155.899 1409.04 137.133C1514.56 118.366 1363.32 96.281 1363.32 96.281C1363.32 96.281 1321.12 138.282 1291.41 184.495C1261.7 230.708 1226.54 275.554 1226.54 275.554C1226.54 275.554 1186.73 251.079 1146.46 217.833C1106.17 184.586 1084.29 190.842 1076.48 160.349C1068.66 129.874 1094.47 31.1736 1094.47 31.1736L1045.86 -12.1765L1031.02 11.2767L1045.86 125.971C1045.86 125.971 1032.86 136.13 1015.54 94.7125C998.192 53.2773 988.179 4.7295 988.179 4.7295L974.21 71.5876H974.191Z" fill="#293D39"/>
<path d="M153.511 -26.1464C153.511 -26.1464 144.375 97.594 -35.9563 191.881C-81.039 260.672 -35.9563 818.224 -35.9563 818.224H-220.135C-220.135 818.224 -126.413 240.794 -152 192.246C-177.587 143.716 -175.837 58.1466 -281.34 39.3804C-386.861 20.6142 -235.619 -1.47126 -235.619 -1.47126C-235.619 -1.47126 -193.417 40.5294 -163.709 86.7428C-134 132.956 -98.8386 177.802 -98.8386 177.802C-98.8386 177.802 -59.0265 153.327 -18.7585 120.081C21.5278 86.834 43.4126 93.0894 51.2182 62.5965C59.0421 32.1219 33.2362 -66.5786 33.2362 -66.5786L81.8387 -109.929L96.6839 -86.4755L81.8387 28.2191C81.8387 28.2191 94.8419 38.3773 112.167 -3.03966C129.511 -44.4749 139.523 -93.0227 139.523 -93.0227L153.493 -26.1646L153.511 -26.1464Z" fill="#293D39"/>
<path d="M1133.26 673.055C1117.88 693.499 1106.65 717.791 1086.31 733.293C1053.36 758.424 1007.47 753.281 966.587 760.157C942.714 764.169 919.826 772.613 897.12 781.002C876.148 788.753 855.175 796.504 834.202 804.255C806.681 814.431 778.815 824.772 754.796 841.623C718.522 867.082 692.625 907.806 687.865 951.868C896.282 916.943 1109.2 908.973 1319.66 928.214C1347.13 930.731 1378.97 932.117 1397.57 911.764C1415.57 892.086 1412.25 861.629 1407.82 835.331C1398.9 782.497 1390 729.664 1381.08 676.83C1375.67 644.678 1379.57 584.951 1339.96 575.522C1307.39 567.771 1258.42 590.513 1229.3 602.841C1192.66 618.361 1157.08 640.447 1133.26 673.037V673.055Z" fill="#659549"/>
<path d="M880.07 1072.8C880.07 1072.8 825.503 773.561 822.275 717.427L819.029 661.292C819.029 661.292 806.901 784.248 814.524 817.659L822.148 851.07C822.148 851.07 774.749 762.108 780.202 727.275L785.655 692.441C785.655 692.441 753.594 788.133 785.874 835.313C818.154 882.493 804.202 867.319 804.202 867.319L708.292 824.407L780.019 927.338L749.034 913.697C749.034 913.697 751.843 939.922 785.016 977.108C818.19 1014.29 880.07 1072.76 880.07 1072.76V1072.8Z" fill="#406B24"/>
<path d="M1129.56 911.6C1129.56 911.6 1123.3 725.579 1192.86 661.493C1192.86 661.493 1124.3 707.597 1107 796.321C1107 796.321 1108.31 743.305 1090.4 712.174C1090.4 712.174 1077.29 750.746 1081.66 762.528C1081.66 762.528 1044.7 694.521 1050.79 677.633C1050.79 677.633 1041.41 705.682 1044.84 762.528L1048.27 819.392C1048.27 819.392 1009.97 782.279 990.04 737.524L970.106 692.77C970.106 692.77 977.821 807.373 986.52 830.972C995.219 854.571 1013.42 934.597 1013.42 934.597L1132.69 915.466" fill="#C2C155"/>
<path d="M1011.38 717.609L1051.85 696.545L999.013 695.688C999.013 695.688 990.66 675.536 990.204 662.314L989.748 649.092L1046.34 650.277L991.973 620.733C991.973 620.733 1002.61 586.538 1043 571.346L1085.49 635.632L1070.43 559.947C1070.43 559.947 1107.43 545.722 1138.75 550.263L1134.79 618.161L1162.42 553.108C1162.42 553.108 1211.55 555.461 1234.88 591.735L1206.52 622.556L1242.41 626.113C1242.41 626.113 1228.33 658.52 1214.92 672.545L1180.11 664.356L1197.05 689.87C1197.05 689.87 1183.25 700.758 1163.86 709.001C1144.47 717.245 1147.03 717.281 1147.03 717.281L1137 706.521L1135.83 720.418C1135.83 720.418 1081.32 755.288 1011.3 717.609H1011.38Z" fill="#374F3F"/>
<path d="M992.229 669.992L1113.67 692.533L1013.04 589.766" stroke="#659549" stroke-miterlimit="10"/>
<path d="M1094.25 553.291L1113.67 692.533L1203.4 567.936" stroke="#659549" stroke-miterlimit="10"/>
<path d="M1178.36 555.169L1113.67 692.533L1033.23 727.84" stroke="#659549" stroke-miterlimit="10"/>
<path d="M1124.69 724.813L1113.67 692.533" stroke="#659549" stroke-miterlimit="10"/>
<path d="M503.96 939.156C503.96 939.156 497.705 753.135 567.262 689.049C567.262 689.049 498.708 735.153 481.401 823.878C481.401 823.878 482.714 770.862 464.805 739.731C464.805 739.731 451.692 778.303 456.069 790.084C456.069 790.084 419.102 722.077 425.193 705.189C425.193 705.189 415.819 733.238 419.248 790.084L422.676 846.948C422.676 846.948 384.378 809.835 364.445 765.081L344.511 720.326C344.511 720.326 352.226 834.93 360.925 858.529C369.624 882.128 387.825 962.153 387.825 962.153L507.097 943.022" fill="#C2C155"/>
<path d="M109.669 277.031L84.994 266.162L106.423 303.84L100.423 353.756L83.225 346.187L98.1614 372.431L78.228 537.88L-18.1017 622.319L-52.3331 605.249L-120.851 571.072C-114.212 524.931 -77.446 419.501 -45.02 332.181L-39.0381 334.917L-15.2931 305.518L-37.1779 311.19C-26.8921 283.834 -17.3904 259.086 -9.80369 239.626L13.1024 239.043L-4.71545 226.514C2.63419 207.693 7.17529 196.386 7.17529 196.386L91.6689 148.768L113.7 243.73L109.687 277.031H109.669Z" fill="#496F44"/>
<path d="M109.668 277.031L85.0112 266.162L106.44 303.84L100.44 353.756L83.2239 346.187L98.1603 372.431L78.2269 537.88L-18.1027 622.319L-52.3342 605.249L91.6496 148.768L113.68 243.73L109.668 277.031Z" fill="#2F473A"/>
<path d="M126.939 537.169L85.0301 525.643L102.283 555.534L62.507 614.477L25.2663 607.492L41.2422 632.386L-3.76753 706.703L-38.0173 696.891L-24.8317 728.314L-100.371 863.854L-124.061 785.506L-153.441 688.301C-153.441 688.301 -34.6616 530.95 102.866 448.152C108.173 444.961 113.517 441.86 118.879 438.906L221.372 447.368L126.939 537.205V537.169Z" fill="#C2C155"/>
<path d="M102.849 448.134C-9.2016 548.513 -102.157 738.564 -124.079 785.507L-153.459 688.302C-153.459 688.302 -34.6792 530.95 102.849 448.153V448.134Z" fill="#D6D35F"/>
<path d="M752.791 156.464C746.426 166.896 751.678 183.547 763.733 185.535L720.438 202.915C709.495 207.31 708.492 222.411 718.778 228.21L741.757 241.159C725.854 256.77 719.435 281.354 725.708 302.746L752.754 284.472C747.174 297.494 760.25 313.634 774.384 312.54C788.518 311.445 798.968 295.907 796.524 281.955L816.348 302.582L831.941 266.6C836.5 276.904 851.327 280.861 860.428 274.205C869.528 267.548 870.258 252.229 861.832 244.751C871.808 248.289 882.13 251.59 892.708 251.335C903.285 251.08 914.319 246.648 919.954 237.693C925.572 228.721 923.766 215.061 914.593 209.772C927.669 209.043 940.727 208.313 953.803 207.584C960.241 207.219 967.08 206.763 971.183 199.851C973.992 195.127 974.302 189.237 972.168 184.167C968.119 174.556 957.578 169.814 947.456 169.395C938.411 169.012 929.511 171.565 920.811 174.1L920.465 144.574C920.283 128.798 904.307 118.111 889.662 123.984L858.276 136.531C858.276 136.531 847.169 129.783 845.418 129.364C840.567 128.251 835.388 128.506 830.701 130.239C821.272 133.722 818.044 146.124 809.6 149.151C800.354 152.452 788.883 143.425 778.889 143.589C768.858 143.753 758.244 147.601 752.809 156.519L752.791 156.464Z" fill="#F2EED8"/>
<path d="M1215.13 116.762C1208.92 117.108 1203.38 121.212 1199.92 126.391C1196.47 131.57 1194.81 137.716 1193.61 143.826C1192.07 151.668 1191.2 159.656 1191 167.662C1206.99 164.434 1221.02 150.446 1223.37 134.288C1224.5 126.428 1221.84 121.011 1215.13 116.78V116.762Z" fill="#527F34"/>
<path d="M402.761 635.796C400.81 641.705 402.597 648.361 406.153 653.468C409.71 658.574 414.816 662.368 420.068 665.705C426.816 670.009 433.929 673.748 441.297 676.848C444.142 660.781 436.263 642.598 422.093 634.519C415.199 630.58 409.162 631.091 402.779 635.796H402.761Z" fill="#527F34"/>
<path d="M255.586 198.629C253.635 204.538 255.422 211.194 258.978 216.301C262.535 221.407 267.641 225.201 272.894 228.538C279.641 232.842 286.754 236.581 294.122 239.681C296.967 223.614 289.088 205.431 274.918 197.352C268.024 193.413 261.988 193.924 255.605 198.629H255.586Z" fill="#527F34"/>
</svg>
