<svg width="1280" height="832" viewBox="0 0 1280 832" fill="none" xmlns="http://www.w3.org/2000/svg">
<path d="M282.052 -10.6581C282.052 -10.6581 229.172 5.9649 217.056 46.5157C217.056 46.5157 234.534 58.3995 267.46 52.5022L300.385 46.6048C300.385 46.6048 289.998 66.6486 295.806 90.131C295.806 90.131 319.182 78.7462 327.734 66.4883L336.286 54.2304C336.286 54.2304 346.887 80.5635 354.958 98.7009C354.958 98.7009 385.923 70.4792 398.911 53.197L411.9 35.9148C411.9 35.9148 401.174 82.5946 414.554 111.173C414.554 111.173 441.671 90.0954 450.081 75.6104L458.473 61.1076C458.473 61.1076 447.515 65.9003 470.356 84.0199C493.197 102.14 487.745 92.3938 487.745 92.3938C487.745 92.3938 507.059 79.5123 506.435 66.4883C505.812 53.4642 506.435 26.6501 506.435 26.6501C506.435 26.6501 514.631 48.1014 535.049 75.6104C555.449 103.119 558.513 104.598 558.513 104.598C558.513 104.598 598.049 64.9382 599.278 42.7921C599.848 32.6722 600.151 27.1668 600.311 24.1914L600.507 20.6459C600.507 20.6459 627.037 67.3969 646.51 75.6104L665.984 83.8239C665.984 83.8239 675.142 62.9784 684.317 52.5022L693.475 42.0259C693.475 42.0259 685.19 89.2758 694.206 111.173C694.206 111.173 726.133 101.569 745.589 85.5343C765.063 69.4993 785.677 55.5844 805.15 6.99827L824.624 -41.6057L282.105 -10.6759L282.052 -10.6581Z" fill="#416D24"/>
<path d="M551.208 -48.4645C551.208 -48.4645 498.328 -31.8415 486.213 8.70934C486.213 8.70934 503.691 20.5931 536.616 14.6957L569.542 8.79842C569.542 8.79842 559.155 28.8422 564.963 52.3246C564.963 52.3246 588.338 40.9398 596.89 28.6819L605.442 16.424C605.442 16.424 616.043 42.7571 624.114 60.8945C624.114 60.8945 655.08 32.6728 668.068 15.3906L681.056 -1.8916C681.056 -1.8916 670.331 44.7882 683.711 73.3662C683.711 73.3662 710.828 52.289 719.238 37.804L727.629 23.3012C727.629 23.3012 716.672 28.0939 739.513 46.2135C762.354 64.3331 756.902 54.5874 756.902 54.5874C756.902 54.5874 776.215 41.7059 775.592 28.6819C774.968 15.6579 775.592 -11.1563 775.592 -11.1563C775.592 -11.1563 783.788 10.295 804.206 37.804C824.606 65.313 827.67 66.7918 827.67 66.7918C827.67 66.7918 867.206 27.1318 868.435 4.98565C869.005 -5.13425 869.308 -10.6396 869.468 -13.615L869.664 -17.1605C869.664 -17.1605 896.193 29.5905 915.667 37.804L935.141 46.0175C935.141 46.0175 944.298 25.172 953.474 14.6957L962.632 4.21953C962.632 4.21953 954.347 51.4695 963.362 73.3662C963.362 73.3662 995.29 63.763 1014.75 47.7279C1034.22 31.6929 1054.83 17.778 1074.31 -30.8081L1093.78 -79.4121L551.262 -48.4823L551.208 -48.4645Z" fill="#527F34"/>
<path d="M1372.22 941.699C1372.22 941.699 1293.19 655.242 1285.17 600.901L1277.15 546.56C1277.15 546.56 1276.01 667.25 1286.31 699.107L1296.62 730.963C1296.62 730.963 1242.8 648.489 1245.08 614.139L1247.38 579.77C1247.38 579.77 1224.47 675.678 1259.97 718.776C1295.48 761.875 1280.59 748.334 1280.59 748.334L1183.54 714.892L1262.26 808.84L1230.92 798.257C1230.92 798.257 1235.92 823.539 1271.41 856.856C1306.92 890.173 1372.2 941.699 1372.2 941.699H1372.22Z" fill="#527F34"/>
<path d="M192.897 907.295C192.897 907.295 173.228 716.175 390.485 638.886C390.485 638.886 378.993 809.232 192.897 907.295Z" fill="#374F3F"/>
<path d="M390.467 638.904L192.898 907.295" stroke="#192D1F" stroke-miterlimit="10"/>
<path d="M306.247 701.227L291.673 773.1L350.273 739.587" stroke="#192D1F" stroke-miterlimit="10"/>
<path d="M255.095 772.405L240.521 844.277L299.12 810.764" stroke="#192D1F" stroke-miterlimit="10"/>
<path d="M183.027 902.77C182.902 904.035 182.76 905.317 182.617 906.582H182.6C181.513 905.977 142.191 884.365 107.627 837.364C69.5882 785.553 37.3399 702.884 68.4835 583.494H68.5192C69.6416 584.403 114.86 620.375 148.73 691.089C149.247 692.176 149.763 693.263 150.262 694.368C174.35 745.947 192.114 815.45 183.009 902.752L183.027 902.77Z" fill="#5C893F"/>
<g style="mix-blend-mode:multiply" opacity="0.32">
<path d="M183.028 902.769C171.09 895.304 139.626 873.461 111.315 834.923C115.253 819.263 119.155 803.62 123.11 787.941C123.698 785.5 124.322 783.059 124.945 780.618C127.546 770.284 130.13 759.969 132.891 749.653C133.996 745.537 135.136 741.404 136.33 737.306C139.858 724.923 143.742 712.63 148.267 700.55C148.748 699.285 149.425 697.058 150.298 694.367C174.387 745.947 192.15 815.45 183.045 902.752L183.028 902.769Z" fill="#527F34"/>
</g>
<path d="M182.617 906.582L182.599 906.565L154.841 827.939L128.721 754L125.568 745.038L68.5188 583.512L68.501 583.494" stroke="#355722" stroke-miterlimit="10"/>
<path d="M72.832 691.089L125.552 745.038L130.932 675.892" stroke="#355722" stroke-miterlimit="10"/>
<path d="M103.814 775.719L156.534 829.668L161.915 760.521" stroke="#355722" stroke-miterlimit="10"/>
<path d="M163.251 922.457C163.251 922.457 74.1317 752.236 247.257 599.939C247.257 599.939 299.727 762.41 163.251 922.457Z" fill="#659549"/>
<path d="M247.256 599.939L163.25 922.457" stroke="#355722" stroke-miterlimit="10"/>
<path d="M192.132 689.04L205.263 761.198L247.257 708.371" stroke="#355722" stroke-miterlimit="10"/>
<path d="M171.019 774.115L184.132 846.273L226.144 793.428" stroke="#355722" stroke-miterlimit="10"/>
<path d="M207.08 889.656C207.08 889.656 304.893 724.3 525.518 791.326C525.518 791.326 415.001 921.459 207.08 889.656Z" fill="#77AD55"/>
<path d="M525.518 791.326L207.08 889.657" stroke="#355722" stroke-miterlimit="10"/>
<path d="M420.756 791.362L366.308 840.5L433.335 848.393" stroke="#355722" stroke-miterlimit="10"/>
<path d="M337.301 818.176L282.854 867.315L349.88 875.207" stroke="#355722" stroke-miterlimit="10"/>
<path d="M176.863 944.764C176.863 944.764 -14.8451 932.025 -54.5051 704.862C-54.5051 704.862 111.493 744.825 176.863 944.764Z" fill="#77AD55"/>
<path d="M-54.488 704.879L176.862 944.764" stroke="#C2C155" stroke-miterlimit="10"/>
<path d="M-7.22021 798.381L61.196 824.821L38.0164 761.429" stroke="#C2C155" stroke-miterlimit="10"/>
<path d="M54.3545 860.776L122.753 887.216L99.5733 823.824" stroke="#C2C155" stroke-miterlimit="10"/>
<path d="M49.4707 876.081C47.5287 875.867 46.5131 873.658 47.6534 872.072C53.3904 864.108 70.9399 844.991 110.35 838.309C143.151 832.768 159.827 829.953 167.453 828.67C169.644 828.296 171.23 830.702 170.019 832.572C162.767 843.743 143.311 870.753 121.575 875.617C98.8586 880.713 61.7464 877.399 49.4707 876.081Z" fill="#293D39"/>
<path d="M31.833 825.356L57.7385 811.816" stroke="#293D39" stroke-miterlimit="10"/>
<path d="M55.939 814.488C53.9969 814.274 52.9814 812.065 54.1217 810.479C59.8587 802.515 77.4081 783.398 116.819 776.717C149.619 771.176 166.296 768.361 173.921 767.078C176.113 766.704 177.698 769.109 176.487 770.98C169.235 782.151 149.78 809.161 128.043 814.025C105.327 819.12 68.2147 815.807 55.939 814.488Z" fill="#293D39"/>
<path d="M172.229 770.98C172.229 770.98 129.219 797.883 57.0796 811.816" stroke="#6F9E7C" stroke-linecap="round" stroke-linejoin="round"/>
<path d="M45.498 769.18L75.5014 754.998" stroke="#293D39" stroke-miterlimit="10"/>
<path d="M73.9872 757.831C72.0452 757.831 70.7981 755.729 71.7602 754.036C76.6419 745.52 92.1247 724.692 130.627 713.984C162.679 705.076 178.963 700.55 186.429 698.484C188.567 697.896 190.402 700.123 189.386 702.1C183.346 713.966 166.777 742.829 145.664 749.92C123.589 757.332 86.3521 757.867 74.0051 757.831H73.9872Z" fill="#293D39"/>
<path d="M185.146 702.528C185.146 702.528 145.165 733.742 74.8428 755.051" stroke="#6F9E7C" stroke-linecap="round" stroke-linejoin="round"/>
<path d="M56.2427 721.663L77.8543 698.073" stroke="#293D39" stroke-miterlimit="10"/>
<path d="M77.408 701.263C75.5729 701.94 73.6844 700.39 74.0051 698.466C75.6442 688.791 82.9312 663.883 115.34 640.544C142.314 621.105 156.033 611.235 162.305 606.71C164.104 605.409 166.599 606.87 166.331 609.079C164.763 622.299 159.24 655.118 141.887 669.068C123.749 683.642 88.9889 697.04 77.3902 701.281L77.408 701.263Z" fill="#293D39"/>
<path d="M162.537 610.95C162.537 610.95 135.847 654.067 77.2661 698.377" stroke="#6F9E7C" stroke-linecap="round" stroke-linejoin="round"/>
<path d="M67.3951 646.405L68.7491 667.714L13.4995 905.817" stroke="#293D39" stroke-miterlimit="10"/>
<path d="M69.0707 649.167C68.073 650.842 65.6321 650.842 64.67 649.167C59.806 640.633 49.6861 616.74 60.002 578.185C68.5897 546.079 72.9548 529.759 74.9502 522.294C75.5204 520.138 78.371 519.711 79.5647 521.581C86.7271 532.806 103.225 561.722 98.6286 583.477C93.8181 606.229 75.3778 638.566 69.0885 649.167H69.0707Z" fill="#293D39"/>
<path d="M77.8001 525.43C77.8001 525.43 84.428 575.691 67.1279 647.011" stroke="#6F9E7C" stroke-linecap="round" stroke-linejoin="round"/>
<path d="M30.3369 833.302L9.11719 808.965" stroke="#293D39" stroke-miterlimit="10"/>
<path d="M9.65205 812.136C11.505 812.742 13.3579 811.139 12.966 809.232C11.0239 799.611 2.95299 774.953 -30.1683 752.629C-57.7485 734.046 -71.7703 724.603 -78.1843 720.291C-80.0373 719.044 -82.4603 720.594 -82.1396 722.786C-80.162 735.952 -73.5876 768.575 -55.8244 781.973C-37.2415 795.977 -2.07135 808.27 9.65205 812.136Z" fill="#293D39"/>
<path d="M-78.2739 724.532C-78.2739 724.532 -50.2304 766.775 9.7228 809.232" stroke="#6F9E7C" stroke-linecap="round" stroke-linejoin="round"/>
<path d="M42.88 781.064L16.4399 749.885" stroke="#293D39" stroke-miterlimit="10"/>
<path d="M16.6353 753.092C18.417 753.894 20.4125 752.486 20.2343 750.544C19.3079 740.781 13.8203 715.41 -16.8066 689.789C-42.3023 668.462 -55.2729 657.612 -61.2237 652.659C-62.9341 651.234 -65.5175 652.517 -65.4106 654.726C-64.8048 668.017 -61.6513 701.156 -45.3668 716.318C-28.334 732.175 5.37518 748.032 16.6353 753.092Z" fill="#293D39"/>
<path d="M-61.7402 656.881C-61.7402 656.881 -38.2222 701.797 17.0096 750.223" stroke="#6F9E7C" stroke-linecap="round" stroke-linejoin="round"/>
<path d="M57.8272 714.84L46.8877 684.284" stroke="#293D39" stroke-miterlimit="10"/>
<path d="M45.8191 687.883C47.4404 689.469 50.202 688.738 50.79 686.547C53.7119 675.483 57.9879 645.533 34.8262 605.142C15.5485 571.522 5.74934 554.436 1.25952 546.614C-0.0410957 544.369 -3.37284 544.726 -4.15677 547.202C-8.86038 561.99 -18.8199 599.494 -7.11435 622.656C5.10791 646.869 35.5745 677.799 45.8369 687.883H45.8191Z" fill="#293D39"/>
<path d="M-1.03955 551.033C-1.03955 551.033 6.53255 609.65 47.3685 684.872" stroke="#6F9E7C" stroke-linecap="round" stroke-linejoin="round"/>
<path d="M1272.73 801.001L1278.58 773.777" stroke="#293D39" stroke-miterlimit="10"/>
<path d="M1279.65 776.36C1278.56 777.661 1276.46 777.34 1275.85 775.754C1272.82 767.772 1267.33 745.858 1281.37 714.055C1293.06 687.579 1299.01 674.128 1301.74 667.963C1302.52 666.199 1305.03 666.199 1305.8 667.963C1310.45 678.582 1320.75 705.645 1313.85 723.765C1306.66 742.704 1286.45 768.057 1279.61 776.342L1279.65 776.36Z" fill="#C2C155"/>
<path d="M1303.79 671.063C1303.79 671.063 1302.74 715.177 1278.26 774.257" stroke="#293D39" stroke-miterlimit="10"/>
<path d="M1247.97 739.586L1258.37 754.98L1321.75 958.091" stroke="#293D39" stroke-miterlimit="10"/>
<path d="M1250.44 740.905C1250.44 742.598 1248.59 743.684 1247.13 742.829C1239.72 738.571 1221.6 725.084 1212.37 691.588C1204.67 663.705 1200.77 649.523 1198.99 643.038C1198.47 641.167 1200.42 639.599 1202.14 640.472C1212.46 645.746 1237.58 660.195 1243.71 678.547C1250.12 697.753 1250.52 730.144 1250.44 740.887V740.905Z" fill="#C2C155"/>
<path d="M1202.52 644.16C1202.52 644.16 1229.62 678.974 1248.04 740.157" stroke="#293D39" stroke-miterlimit="10"/>
<path d="M1256.84 842.033C1258.53 841.855 1259.41 839.913 1258.43 838.541C1253.42 831.61 1238.15 814.987 1203.85 809.232C1175.31 804.44 1160.79 802.017 1154.16 800.912C1152.26 800.591 1150.88 802.694 1151.94 804.315C1158.24 814.025 1175.2 837.525 1194.11 841.73C1213.88 846.131 1246.17 843.191 1256.86 842.033H1256.84Z" fill="#C2C155"/>
<path d="M1155.62 804.315C1155.62 804.315 1193.06 827.69 1255.84 839.717" stroke="#293D39" stroke-miterlimit="10"/>
<path d="M1270.92 795.175L1249.25 777.055" stroke="#293D39" stroke-miterlimit="10"/>
<path d="M1250.03 780.226C1251.96 780.707 1253.7 778.944 1253.17 777.037C1250.5 767.434 1240.5 743.079 1205.33 722.946C1176.06 706.198 1161.16 697.682 1154.36 693.798C1152.4 692.675 1150.05 694.421 1150.55 696.613C1153.52 709.797 1162.57 742.33 1181.55 754.57C1201.39 767.363 1237.88 777.18 1250.03 780.226Z" fill="#C2C155"/>
<path d="M1249.89 777.287C1186.09 738.785 1154.61 698.109 1154.61 698.109L1249.89 777.287Z" fill="#527F34"/>
<path d="M631.705 699.57C623.064 686.92 613.621 674.306 600.65 666.146C587.697 657.986 570.415 655.064 557.017 662.493C542.336 670.653 536.011 689.236 537.686 705.948C539.343 722.66 547.485 737.947 555.805 752.521C594.147 819.672 639.989 882.53 692.175 939.579C696.86 944.692 701.796 949.913 708.192 952.639C714.588 955.347 722.855 954.883 727.47 949.717C733.705 942.732 719.238 904.622 716.993 894.788C711.702 871.751 704.985 849.034 696.896 826.817C680.558 781.919 658.644 739.034 631.705 699.57Z" fill="#4B772F"/>
<path d="M584.775 710.741C584.775 710.741 715.318 938.1 723.478 964.166L731.638 990.25" stroke="#355722" stroke-miterlimit="10"/>
<path d="M512.564 803.762C498.56 797.562 483.879 791.825 468.575 791.7C453.252 791.593 437.021 798.203 429.574 811.583C421.396 826.247 425.815 845.382 436.024 858.709C446.233 872.036 461.216 880.748 475.969 888.748C543.939 925.628 616.008 954.919 690.428 975.907C697.11 977.796 704.058 979.631 710.918 978.562C717.777 977.511 724.565 972.753 725.759 965.93C727.38 956.701 695.007 931.935 687.916 924.773C671.275 907.972 653.601 892.222 635.018 877.594C597.479 848.036 556.269 823.129 512.564 803.762Z" fill="#5C893F"/>
<path d="M801.356 752.753C801.605 737.43 801.159 721.68 795.298 707.534C789.418 693.387 777 681.023 761.767 679.384C745.073 677.584 729.18 689.111 720.895 703.703C712.611 718.313 710.437 735.488 708.816 752.2C701.368 829.169 702.508 906.956 712.201 983.657C713.074 990.552 714.089 997.661 717.742 1003.56C721.394 1009.46 728.414 1013.86 735.166 1012.29C744.289 1010.19 754.48 970.722 758.31 961.386C767.29 939.525 774.898 917.094 781.116 894.289C793.677 848.197 800.536 800.537 801.338 752.753H801.356Z" fill="#77AD55"/>
<path d="M756.583 734.776C756.583 734.776 731.96 995.791 723.568 1021.79L715.177 1047.8" stroke="#355722" stroke-miterlimit="10"/>
<path d="M840.071 837.507L896.799 824.714L831.982 806.47C831.982 806.47 828.241 778.925 831.982 762.481L835.724 746.036L905.084 765.901L847.697 711.81C847.697 711.81 871.927 673.112 926.642 667.535L958.107 760.592L964.164 662.422C964.164 662.422 1014.39 656.934 1051.5 672.72L1024.55 755.105L1079.76 683.927C1079.76 683.927 1139.53 702.812 1156.5 755.105L1111.54 783.861L1154.61 799.914C1154.61 799.914 1126.71 835.262 1105.63 848.197L1065.4 826.781L1077.98 863.733C1077.98 863.733 1057.43 872.659 1030.87 876.508C1004.31 880.356 1007.44 881.247 1007.44 881.247L998.568 864.731L992.618 881.479C992.618 881.479 914.099 906.725 840.089 837.507H840.071Z" fill="#527F34"/>
<path d="M831.964 772.6L974.302 839.876L883.704 680.488" stroke="#355722" stroke-miterlimit="10"/>
<path d="M995.647 661.959L974.302 839.877L1125.39 715.516" stroke="#355722" stroke-miterlimit="10"/>
<path d="M1098.68 691.659L974.302 839.876L863.678 857.23" stroke="#355722" stroke-miterlimit="10"/>
<path d="M815.964 -12.3859C815.964 -12.3859 763.084 4.23713 750.969 44.788C750.969 44.788 768.447 56.6717 801.372 50.7744L834.297 44.877C834.297 44.877 823.91 64.9208 829.719 88.4033C829.719 88.4033 853.094 77.0184 861.646 64.7605L870.198 52.5026C870.198 52.5026 880.799 78.8357 888.87 96.9731C888.87 96.9731 919.835 68.7514 932.824 51.4692L945.812 34.187C945.812 34.187 935.087 80.8668 948.467 109.445C948.467 109.445 975.584 88.3676 983.993 73.8826L992.385 59.3798C992.385 59.3798 981.428 64.1725 1004.27 82.2921C1027.11 100.412 1021.66 90.666 1021.66 90.666C1021.66 90.666 1040.97 77.7845 1040.35 64.7605C1039.72 51.7365 1040.35 24.9223 1040.35 24.9223C1040.35 24.9223 1048.54 46.3736 1068.96 73.8826C1089.36 101.392 1092.43 102.87 1092.43 102.87C1092.43 102.87 1131.96 63.2104 1133.19 41.0643C1133.76 30.9444 1134.06 25.439 1134.22 22.4636L1134.42 18.9181C1134.42 18.9181 1160.95 65.6691 1180.42 73.8826L1199.9 82.0961C1199.9 82.0961 1209.05 61.2506 1218.23 50.7744L1227.39 40.2981C1227.39 40.2981 1219.1 87.5481 1228.12 109.445C1228.12 109.445 1260.05 99.8416 1279.5 83.8065C1298.98 67.7715 1319.59 53.8567 1339.06 5.2705L1358.54 -43.3335L816.017 -12.4037L815.964 -12.3859Z" fill="#659549"/>
<path d="M-107.938 9.60014C-107.938 9.60014 -155.704 37.7327 -158.359 79.9762C-158.359 79.9762 -138.636 87.6017 -107.902 74.4173L-77.1684 61.233C-77.1684 61.233 -82.7628 83.1119 -71.8056 104.67C-71.8056 104.67 -51.6014 88.2966 -46.0426 74.4352L-40.4838 60.5737C-40.4838 60.5737 -24.2171 83.8246 -12.2621 99.6814C-12.2621 99.6814 11.541 65.1883 20.2712 45.4295L29.0192 25.653C29.0192 25.653 29.1083 73.5443 48.5998 98.3808C48.5998 98.3808 70.2649 71.727 75.1823 55.7098L80.0997 39.6926C80.0997 39.6926 70.5144 46.8371 96.8474 59.3266C123.181 71.8161 115.662 63.5669 115.662 63.5669C115.662 63.5669 131.572 46.6589 128.027 34.1159C124.481 21.573 119.029 -4.68887 119.029 -4.68887C119.029 -4.68887 131.857 14.3572 157.941 36.539C184.025 58.7208 187.338 59.4869 187.338 59.4869C187.338 59.4869 216.896 11.9163 213.084 -9.92699C211.355 -19.9222 210.411 -25.3384 209.894 -28.2782L209.289 -31.7703C209.289 -31.7703 245.688 7.78284 266.516 11.3818L287.344 14.9986C287.344 14.9986 291.566 -7.3792 298.123 -19.6549L304.679 -31.9306C304.679 -31.9306 307.263 15.9785 320.999 35.274C320.999 35.274 349.934 18.7223 365.274 -1.3037C380.614 -21.3297 397.558 -39.5205 405.558 -91.2603L413.557 -143L-107.938 9.60014Z" fill="#659549"/>
<path d="M203.747 -42.9951C229.082 -13.7045 256.663 13.7154 285.882 39.0508C315.048 64.4396 345.96 87.8151 378.654 108.144C395.009 118.282 411.864 127.6 429.2 135.813C437.841 139.965 446.606 143.849 455.515 147.359C464.388 150.94 473.403 154.147 482.507 156.997C518.889 168.4 557.106 174.119 594.859 170.948C604.266 170.111 613.638 168.828 622.903 166.993C627.571 166.048 632.257 164.908 636.925 163.91L643.944 162.36L650.911 160.561C669.547 156 687.845 150.049 705.929 143.635L719.434 138.611L732.814 133.23C737.286 131.484 741.687 129.542 746.088 127.618C750.47 125.658 754.942 123.858 759.254 121.738C776.768 113.774 793.801 104.759 810.655 95.4407C827.51 86.1047 843.973 76.0383 860.061 65.4017C876.185 54.8186 891.989 43.701 907.382 32.031C922.794 20.3789 937.867 8.28135 952.494 -4.36852C959.817 -10.6935 967.033 -17.1253 974.124 -23.6996C981.215 -30.2562 988.234 -36.9731 994.88 -43.8682L998.746 -40.4295C985.9 -25.5526 972.11 -11.7981 957.893 1.63572C943.621 14.9626 928.869 27.7906 913.636 40.0664C883.152 64.5465 850.975 87.0312 817.052 106.683C783.164 126.37 747.655 143.421 710.721 156.908C692.21 163.501 673.502 169.629 654.385 174.333L647.24 176.186L640.043 177.79C635.232 178.841 630.457 179.945 625.593 180.907C615.776 182.778 605.87 184.079 595.928 184.898C556.072 187.963 515.967 181.798 478.498 169.309C469.109 166.226 459.844 162.77 450.74 158.957C441.618 155.198 432.656 151.082 423.855 146.699C415.017 142.352 406.394 137.631 397.878 132.731C389.361 127.849 381.005 122.682 372.774 117.337C356.311 106.665 340.437 95.1734 325.132 82.969C309.81 70.8002 294.968 58.0612 280.733 44.6987C266.48 31.354 252.725 17.5104 239.469 3.20358C226.214 -11.1032 213.457 -25.8377 201.609 -41.356L203.711 -43.013L203.747 -42.9951Z" fill="#293D39"/>
<path d="M587.324 -85.0242C612.659 -55.7335 640.239 -28.3136 669.459 -2.97825C698.625 22.4106 729.537 45.7861 762.23 66.1149C778.586 76.2527 795.441 85.5708 812.776 93.7843C821.417 97.9356 830.183 101.82 839.091 105.33C847.964 108.911 856.98 112.118 866.084 114.968C902.466 126.371 940.682 132.09 978.436 128.919C987.843 128.081 997.215 126.799 1006.48 124.964C1011.15 124.019 1015.83 122.879 1020.5 121.881L1027.52 120.331L1034.49 118.532C1053.12 113.971 1071.42 108.02 1089.51 101.606L1103.01 96.5815L1116.39 91.2009C1120.86 89.4549 1125.26 87.5128 1129.66 85.5886C1134.05 83.6288 1138.52 81.8293 1142.83 79.7091C1160.34 71.745 1177.38 62.7298 1194.23 53.4117C1211.09 44.0757 1227.55 34.0092 1243.64 23.3727C1259.76 12.7895 1275.57 1.67192 1290.96 -9.99802C1306.37 -21.6502 1321.44 -33.7477 1336.07 -46.3976C1343.39 -52.7225 1350.61 -59.1543 1357.7 -65.7287C1364.79 -72.2853 1371.81 -79.0022 1378.46 -85.8972L1382.32 -82.4586C1369.48 -67.5816 1355.69 -53.8271 1341.47 -40.3933C1327.2 -27.0664 1312.45 -14.2384 1297.21 -1.9627C1266.73 22.5175 1234.55 45.0022 1200.63 64.654C1166.74 84.3414 1131.23 101.392 1094.3 114.879C1075.79 121.471 1057.08 127.6 1037.96 132.304L1030.82 134.157L1023.62 135.76C1018.81 136.812 1014.03 137.916 1009.17 138.878C999.353 140.749 989.447 142.05 979.505 142.869C939.649 145.934 899.544 139.769 862.075 127.28C852.686 124.197 843.421 120.741 834.317 116.928C825.194 113.169 816.233 109.053 807.431 104.67C798.594 100.323 789.971 95.6016 781.454 90.702C772.938 85.8202 764.582 80.6534 756.351 75.3084C739.888 64.6362 724.013 53.1444 708.709 40.9399C693.386 28.7711 678.545 16.0322 664.31 2.66964C650.056 -10.6751 636.302 -24.5187 623.046 -38.8255C609.79 -53.1323 597.034 -67.8667 585.186 -83.3851L587.288 -85.042L587.324 -85.0242Z" fill="#659549"/>
<path d="M-369.88 54.409C-342.353 86.1762 -312.261 115.788 -280.244 142.887C-248.281 170.057 -214.286 194.84 -178.083 215.615C-159.963 225.966 -141.274 235.231 -122.085 243.195C-102.861 251.034 -83.1021 257.537 -62.9157 261.974C-57.8914 263.15 -52.7958 264.04 -47.7359 265.002C-42.6403 265.804 -37.5625 266.659 -32.4313 267.212C-22.2045 268.405 -11.9421 269.189 -1.66187 269.189C8.60056 269.189 18.8808 268.762 29.0541 267.55C39.2453 266.321 49.2939 264.557 59.3782 262.187C99.6618 252.923 138.075 236.033 174.011 215.116C210.054 194.252 243.639 169.095 275.406 141.889C283.334 135.047 291.138 128.081 298.835 120.972C306.514 113.846 314.068 106.594 321.569 99.2536C336.535 84.5548 350.984 69.3572 365.077 53.7854C393.317 22.7309 419.882 -10.0163 444.273 -44.1353L448.62 -41.3024C442.936 -32.2871 437.003 -23.5748 430.946 -14.8802C424.852 -6.23911 418.581 2.2951 412.203 10.7402C399.446 27.6305 386.208 44.1644 372.489 60.3063C344.909 92.4655 315.476 123.128 283.673 151.332C251.959 179.607 217.804 205.352 181.066 227.178C144.293 248.825 104.597 266.285 62.5852 276.067C52.1268 278.49 41.3655 280.289 30.622 281.519C19.8607 282.73 9.01035 283.122 -1.80438 283.033C-12.6191 282.962 -23.4161 282.089 -34.1061 280.752C-39.4689 280.129 -44.7783 279.202 -50.1055 278.329C-55.3971 277.296 -60.6886 276.28 -65.9089 274.998C-107.814 265.038 -147.367 247.382 -183.82 225.378C-192.96 219.908 -201.922 214.154 -210.723 208.167C-219.525 202.181 -228.184 196.016 -236.629 189.584C-253.537 176.721 -269.857 163.127 -285.553 148.891C-301.196 134.584 -316.269 119.689 -330.736 104.242C-345.239 88.813 -359.136 72.8849 -372 56.0303L-369.898 54.3733L-369.88 54.409Z" fill="#659549"/>
<path d="M1257.02 8.44189C1251.9 10.5086 1248.41 15.5329 1246.99 20.8779C1245.56 26.2051 1245.94 31.853 1246.67 37.3228C1247.61 44.3604 1249.16 51.3089 1251.28 58.0792C1263.79 50.7922 1271.57 35.0422 1268.94 20.8067C1267.65 13.8938 1263.84 10.081 1257 8.4597L1257.02 8.44189Z" fill="#C2C155"/>
<path d="M854.608 1.20825C850.778 1.42205 847.357 3.95203 845.219 7.14122C843.081 10.3304 842.065 14.1254 841.335 17.9025C840.391 22.7487 839.856 27.6839 839.731 32.6191C849.602 30.6236 858.261 22.0004 859.704 12.023C860.399 7.17685 858.76 3.82731 854.608 1.20825Z" fill="#C2C155"/>
<path d="M62.4955 9.20785C59.6626 11.7913 58.6115 15.9247 58.9678 19.7375C59.3241 23.5503 60.9276 27.1493 62.7449 30.5345C65.0611 34.8995 67.7692 39.0508 70.7803 42.9527C77.1765 35.1668 78.4415 23.0158 73.2746 14.3747C70.7625 10.1699 67.3595 8.61989 62.4955 9.20785Z" fill="#416D24"/>
</svg>
